# xmcd CD database file
#
# Track frame offsets:
#	150
#	18240
#	32032
#	50322
#	66710
#	86602
#	101422
#	118822
#	133025
#	143445
#
# Disc length: 2067 seconds
#
# Revision: 0
# Processed by: cddbd v1.5.1PL0 Copyright (c) Steve Scherf et al.
# Submitted via: CDex 1.51
#
DISCID=8508110a
DTITLE=Johnny Ray Zamot - Johnny "Ray" Zamot Y La Voz De Manny Roman
DYEAR=1996
DGENRE=Salsa
TTITLE0=No me digas
TTITLE1=La china
TTITLE2=Oh, vida
TTITLE3=Me voy contigo
TTITLE4=La negra tomasa
TTITLE5=Estas como la luna
TTITLE6=Aguadilla
TTITLE7=Me dejaron fuera
TTITLE8=Con mi negrita de mano
TTITLE9=Soul Makoosa
EXTD=YEAR: 1996
EXTT0=
EXTT1=
EXTT2=
EXTT3=
EXTT4=
EXTT5=
EXTT6=
EXTT7=
EXTT8=
EXTT9=
PLAYORDER=
